<?xml version="1.0" standalone="no"?>
<!DOCTYPE svg PUBLIC "-//W3C//DTD SVG 20010904//EN"
 "http://www.w3.org/TR/2001/REC-SVG-20010904/DTD/svg10.dtd">
<svg version="1.0" xmlns="http://www.w3.org/2000/svg"
 width="3004.000000pt" height="2004.000000pt" viewBox="0 0 3004.000000 2004.000000"
 preserveAspectRatio="xMidYMid meet">

<g transform="translate(0.000000,2004.000000) scale(0.100000,-0.100000)"
fill="#000000" stroke="none">
<path d="M10 10020 l0 -10010 15010 0 15010 0 0 10010 0 10010 -15010 0
-15010 0 0 -10010z m30000 0 l0 -9990 -14990 0 -14990 0 0 9990 0 9990 14990
0 14990 0 0 -9990z"/>
<path d="M14915 18110 c-1678 -86 -3255 -655 -4580 -1653 -329 -248 -541 -431
-849 -735 -673 -666 -1187 -1376 -1605 -2221 -776 -1566 -1033 -3326 -740
-5066 377 -2245 1689 -4257 3599 -5520 1667 -1102 3666 -1563 5650 -1305 1509
197 2923 801 4110 1755 452 364 897 806 1257 1252 997 1232 1619 2722 1792
4288 39 355 46 492 46 935 -1 465 -12 653 -61 1040 -179 1421 -726 2769 -1592
3925 -239 319 -479 593 -781 895 -1068 1066 -2383 1809 -3846 2174 -454 113
-930 188 -1440 226 -195 15 -756 20 -960 10z m1735 -5380 l0 -2340 1188 0
c654 0 1453 3 1776 7 l587 6 -6 51 c-84 642 -307 1277 -648 1846 l-84 139 416
270 415 270 19 -27 c56 -84 192 -321 273 -477 324 -628 524 -1291 610 -2017 4
-42 10 -58 21 -58 14 0 15 -55 10 -477 -7 -602 -28 -830 -117 -1273 -145 -718
-442 -1431 -855 -2050 -337 -506 -790 -993 -1262 -1358 -751 -581 -1613 -962
-2523 -1116 -201 -34 -230 -37 -231 -29 0 5 -28 226 -63 493 -61 478 -62 485
-42 488 909 127 1731 499 2436 1102 132 112 419 402 531 535 587 697 970 1556
1088 2440 11 83 22 172 25 199 l6 49 -2280 -6 -2280 -7 0 2840 0 2840 495 0
495 0 0 -2340z"/>
</g>
</svg>
