<?xml version="1.0" standalone="no"?>
<!DOCTYPE svg PUBLIC "-//W3C//DTD SVG 20010904//EN"
 "http://www.w3.org/TR/2001/REC-SVG-20010904/DTD/svg10.dtd">
<svg version="1.0" xmlns="http://www.w3.org/2000/svg"
 width="3645.000000pt" height="1258.000000pt" viewBox="0 0 3645.000000 1258.000000"
 preserveAspectRatio="xMidYMid meet">

<g transform="translate(0.000000,1258.000000) scale(0.100000,-0.100000)"
fill="#000000" stroke="none">
<path d="M5955 12564 c-1158 -74 -2189 -416 -3130 -1039 -703 -464 -1326
-1091 -1787 -1795 -203 -310 -412 -705 -554 -1045 -166 -400 -322 -949 -389
-1367 -204 -1274 -32 -2532 503 -3686 483 -1041 1268 -1950 2232 -2587 1557
-1029 3471 -1311 5270 -778 1141 338 2183 1017 2968 1933 1242 1450 1755 3374
1401 5262 -147 789 -468 1583 -913 2263 -255 389 -472 653 -830 1010 -333 333
-592 546 -961 790 -872 579 -1826 915 -2895 1021 -157 15 -767 27 -915 18z
m1355 -4085 l0 -1782 53 7 c28 3 634 6 1345 6 l1292 0 0 31 c0 47 -37 258 -70
395 -81 340 -238 723 -419 1023 -52 85 -61 106 -49 116 19 17 587 385 600 388
30 7 294 -488 397 -744 137 -341 237 -731 282 -1098 8 -65 18 -105 26 -108 28
-11 8 -702 -27 -979 -109 -850 -441 -1615 -985 -2269 -598 -720 -1439 -1240
-2335 -1446 -140 -32 -412 -80 -418 -74 -3 3 -100 727 -98 732 1 0 60 11 131
23 323 54 639 155 945 301 780 374 1417 1043 1758 1844 133 312 231 680 267
995 3 30 8 72 11 93 l6 39 -1731 -8 -1731 -7 0 2152 0 2151 375 0 375 0 0
-1781z"/>
<path d="M17701 8915 c-11 -19 -32 -40 -46 -45 -17 -6 -317 -10 -801 -10 -836
0 -817 1 -736 -51 l37 -24 3 -775 c1 -426 0 -785 -3 -798 -3 -13 -20 -30 -40
-39 -21 -10 -35 -24 -35 -35 0 -17 34 -18 805 -18 l806 0 24 -25 c14 -13 25
-31 25 -40 0 -8 9 -15 20 -15 19 0 20 7 20 225 0 218 -1 225 -20 225 -11 0
-20 -7 -20 -15 0 -9 -11 -27 -25 -40 l-24 -25 -576 0 -575 0 0 240 0 240 354
0 c209 0 365 -4 381 -10 14 -5 35 -26 46 -45 12 -19 27 -35 35 -35 12 0 14 38
14 220 0 209 -1 220 -19 220 -11 0 -23 -12 -30 -29 -7 -15 -24 -33 -37 -40
-17 -7 -139 -11 -384 -11 l-360 0 0 210 0 210 554 0 c541 0 554 0 579 -20 14
-11 29 -29 32 -40 4 -11 15 -20 26 -20 18 0 19 9 19 225 0 186 -2 225 -14 225
-8 0 -23 -16 -35 -35z"/>
<path d="M21680 8917 c-8 -17 -26 -37 -40 -44 -19 -10 -204 -13 -802 -13 -771
0 -778 0 -778 -20 0 -11 7 -20 15 -20 9 0 27 -11 40 -25 l25 -24 0 -776 c0
-478 -4 -783 -10 -794 -5 -10 -23 -24 -40 -31 -18 -8 -30 -20 -30 -31 0 -18
24 -19 805 -19 l806 0 24 -25 c14 -13 25 -31 25 -40 0 -8 9 -15 20 -15 19 0
20 7 20 225 0 218 -1 225 -20 225 -11 0 -20 -7 -20 -15 0 -9 -11 -27 -25 -40
l-24 -25 -576 0 -575 0 0 240 0 240 354 0 c209 0 365 -4 381 -10 14 -5 35 -26
46 -45 12 -19 27 -35 35 -35 12 0 14 38 14 220 0 209 -1 220 -19 220 -11 0
-23 -12 -30 -29 -7 -15 -24 -33 -37 -40 -17 -7 -139 -11 -384 -11 l-360 0 0
210 0 210 554 0 c541 0 554 0 579 -20 14 -11 29 -29 32 -40 4 -11 15 -20 26
-20 18 0 19 9 19 225 0 208 -1 225 -17 225 -10 0 -25 -15 -33 -33z"/>
<path d="M29688 8919 c-21 -60 -1 -59 -848 -59 -728 0 -770 -1 -770 -18 0 -9
13 -23 29 -30 18 -8 34 -25 40 -44 17 -48 15 -1525 -2 -1558 -7 -14 -25 -31
-40 -38 -16 -8 -27 -21 -27 -33 0 -19 14 -19 803 -19 l804 0 20 -22 c11 -13
23 -31 26 -40 4 -10 16 -18 27 -18 20 0 20 6 20 225 0 219 0 225 -20 225 -11
0 -23 -8 -27 -17 -3 -10 -15 -28 -26 -40 l-20 -23 -579 0 -578 0 2 238 3 237
357 3 c217 1 366 -2 382 -8 15 -5 34 -25 43 -45 10 -22 23 -35 33 -33 13 3 15
34 18 221 2 211 2 217 -18 217 -12 0 -26 -12 -35 -30 -9 -17 -27 -35 -41 -40
-14 -6 -180 -10 -385 -10 l-359 0 0 210 0 210 549 0 c346 0 560 -4 576 -10 15
-6 32 -23 38 -40 7 -18 19 -30 29 -30 17 0 18 16 18 225 0 197 -2 225 -16 225
-8 0 -20 -14 -26 -31z"/>
<path d="M24688 8890 c-382 -35 -641 -198 -784 -495 -187 -387 -80 -863 249
-1111 129 -96 296 -161 472 -183 277 -34 558 13 750 126 207 121 363 349 410
598 22 112 15 282 -15 405 -68 280 -292 515 -580 609 -133 44 -342 65 -502 51z
m265 -305 c112 -23 210 -77 292 -159 117 -117 168 -247 168 -431 1 -183 -51
-314 -173 -435 -124 -125 -242 -172 -430 -173 -123 -1 -188 13 -288 60 -86 41
-191 135 -240 215 -125 208 -115 500 23 693 140 197 389 285 648 230z"/>
<path d="M32765 8889 c-373 -35 -605 -246 -605 -549 1 -258 162 -429 455 -479
33 -6 177 -24 320 -41 296 -34 341 -43 387 -73 71 -48 82 -119 32 -205 -67
-114 -269 -177 -493 -152 -289 32 -541 158 -541 271 0 27 -26 47 -41 32 -9
-10 -179 -401 -179 -412 0 -18 30 -20 57 -4 27 15 32 14 140 -35 132 -60 265
-104 388 -129 126 -25 406 -25 525 1 117 25 239 71 307 115 324 209 308 690
-29 855 -103 51 -233 81 -458 105 -399 43 -441 52 -489 106 -25 29 -31 45 -31
81 0 110 95 188 263 215 100 15 289 6 382 -19 187 -51 355 -154 355 -217 0
-14 9 -29 20 -35 18 -10 27 5 120 190 55 111 98 205 95 210 -8 13 -42 13 -50
0 -12 -19 -62 -10 -160 30 -300 122 -523 163 -770 139z"/>
<path d="M35273 8889 c-192 -22 -368 -129 -433 -264 -22 -43 -25 -64 -25 -155
0 -92 3 -112 26 -160 14 -30 50 -81 79 -114 61 -66 65 -56 -42 -116 -87 -49
-195 -160 -235 -240 -59 -122 -68 -272 -24 -391 66 -174 243 -305 466 -344
261 -45 512 17 709 176 l76 61 55 -50 c67 -61 157 -117 228 -142 28 -10 99
-21 157 -25 58 -3 113 -9 123 -11 16 -5 17 9 17 195 0 194 -1 201 -20 201 -11
0 -20 -6 -20 -14 0 -21 -39 -46 -70 -46 -51 0 -117 31 -183 86 -37 31 -67 60
-67 65 0 29 62 131 112 185 68 73 158 125 185 108 10 -6 19 -21 21 -33 2 -13
11 -21 23 -21 18 0 19 10 19 240 l0 240 -65 -24 c-151 -55 -273 -159 -389
-333 -37 -57 -69 -103 -71 -103 -1 0 -18 26 -38 58 -39 63 -84 114 -135 153
l-32 25 49 37 c71 54 119 111 150 176 22 48 26 69 26 151 0 83 -4 103 -29 157
-67 146 -243 250 -461 273 -49 5 -94 9 -100 9 -5 -1 -42 -5 -82 -10z m229
-272 c47 -20 102 -70 122 -111 23 -48 21 -138 -4 -186 -73 -144 -335 -165
-448 -35 -41 46 -52 74 -52 131 0 104 69 184 185 215 42 11 156 3 197 -14z
m-80 -657 c200 -62 319 -251 245 -391 -30 -56 -108 -120 -184 -150 -50 -20
-75 -24 -183 -24 -145 0 -187 14 -266 87 -70 64 -89 107 -89 203 0 94 20 140
84 198 103 93 249 122 393 77z"/>
<path d="M13900 8840 c0 -11 7 -20 15 -20 9 0 27 -11 40 -25 l25 -24 0 -776
c0 -478 -4 -783 -10 -794 -5 -10 -23 -24 -40 -31 -18 -8 -30 -20 -30 -31 0
-18 18 -19 529 -19 549 0 679 7 816 41 279 71 481 296 541 604 24 121 23 349
0 460 -63 290 -232 496 -475 581 -140 49 -219 54 -838 54 -566 0 -573 0 -573
-20z m1165 -284 c94 -26 145 -55 206 -115 102 -102 149 -245 149 -453 0 -198
-50 -347 -148 -445 -114 -114 -201 -133 -613 -133 l-299 0 0 586 0 586 323 -5
c261 -3 333 -7 382 -21z"/>
<path d="M17892 8843 c2 -9 18 -21 36 -25 21 -6 41 -22 57 -46 25 -38 666
-1426 691 -1497 18 -50 5 -88 -37 -105 -17 -8 -29 -20 -29 -31 0 -18 13 -19
295 -19 276 0 295 1 295 18 0 10 -12 22 -30 29 -46 17 -58 54 -37 112 29 83
676 1483 694 1504 10 11 33 26 51 34 17 7 32 20 32 28 0 13 -41 15 -295 15
-254 0 -295 -2 -295 -15 0 -8 16 -21 35 -29 42 -18 55 -47 44 -96 -4 -19 -115
-273 -245 -563 -226 -503 -238 -528 -251 -503 -39 74 -464 1032 -473 1066 -14
50 -1 76 46 96 19 8 34 21 34 29 0 13 -42 15 -311 15 -286 0 -310 -1 -307 -17z"/>
<path d="M22040 8842 c0 -10 12 -22 30 -29 17 -6 34 -23 40 -38 6 -17 10 -300
10 -789 0 -751 0 -764 -20 -789 -11 -14 -29 -29 -40 -32 -11 -4 -20 -15 -20
-26 0 -19 16 -19 780 -19 l781 0 24 -25 c14 -13 25 -31 25 -40 0 -8 9 -15 20
-15 19 0 20 7 20 225 0 218 -1 225 -20 225 -11 0 -20 -6 -20 -14 0 -7 -9 -25
-21 -40 l-20 -26 -560 0 -559 0 0 658 c0 412 4 671 10 693 8 27 19 41 45 53
19 10 35 23 35 31 0 13 -41 15 -270 15 -252 0 -270 -1 -270 -18z"/>
<path d="M26070 8846 c0 -8 16 -23 35 -32 26 -12 38 -26 45 -53 8 -24 10 -281
8 -792 -3 -716 -4 -758 -21 -777 -10 -11 -29 -23 -43 -26 -15 -4 -24 -14 -24
-26 0 -19 8 -20 270 -20 251 0 270 1 270 18 0 9 -14 25 -30 34 -17 9 -35 29
-40 43 -6 15 -10 150 -10 321 l0 294 379 0 c393 0 491 7 601 41 247 77 380
341 310 613 -47 185 -158 295 -355 353 -54 16 -126 18 -727 21 -588 3 -668 1
-668 -12z m1235 -285 c96 -30 146 -105 146 -215 0 -53 -5 -76 -28 -118 -56
-104 -140 -120 -603 -116 l-285 3 -3 233 -2 234 367 -5 c257 -3 380 -8 408
-16z"/>
<path d="M30040 8847 c0 -7 17 -25 38 -38 l37 -24 3 -775 c1 -426 0 -785 -3
-798 -3 -13 -20 -30 -40 -39 -21 -10 -35 -24 -35 -35 0 -17 16 -18 270 -18
260 0 270 1 270 19 0 11 -9 23 -20 26 -12 4 -30 16 -40 28 -19 20 -20 36 -20
329 l0 308 233 0 233 0 179 -261 c212 -308 239 -353 225 -380 -6 -10 -22 -22
-35 -25 -16 -4 -25 -13 -25 -25 0 -18 13 -19 310 -19 294 0 310 1 310 18 0 13
-12 22 -39 31 -26 7 -55 29 -84 60 -43 49 -441 611 -435 615 2 2 34 10 73 20
262 63 389 219 389 481 0 259 -121 420 -369 492 -54 15 -132 18 -742 21 -577
2 -683 1 -683 -11z m1295 -295 c63 -29 84 -48 106 -97 23 -49 25 -161 5 -208
-18 -44 -62 -83 -116 -104 -40 -15 -91 -18 -437 -21 l-393 -3 0 231 0 232 393
-4 c384 -3 393 -4 442 -26z"/>
<path d="M17751 5305 c-11 -19 -32 -40 -46 -45 -17 -6 -317 -10 -801 -10 -836
0 -817 1 -736 -51 l37 -24 3 -775 c1 -426 0 -785 -3 -798 -3 -13 -20 -30 -40
-39 -21 -10 -35 -24 -35 -35 0 -17 34 -18 805 -18 l806 0 24 -25 c14 -13 25
-31 25 -40 0 -8 9 -15 20 -15 19 0 20 7 20 225 0 218 -1 225 -20 225 -11 0
-20 -6 -20 -14 0 -7 -9 -25 -21 -40 l-20 -26 -580 0 -579 0 0 240 0 240 354 0
c218 0 364 -4 383 -10 19 -7 36 -24 46 -45 9 -19 23 -35 32 -35 13 0 15 30 15
220 0 204 -1 220 -18 220 -10 0 -22 -12 -29 -30 -6 -17 -23 -34 -38 -40 -16
-6 -168 -10 -386 -10 l-359 0 0 210 0 210 550 0 c387 0 556 -3 574 -11 13 -7
30 -25 37 -40 7 -17 19 -29 30 -29 18 0 19 12 19 225 0 186 -2 225 -14 225 -8
0 -23 -16 -35 -35z"/>
<path d="M26958 5310 c-21 -62 1 -60 -848 -60 -728 0 -770 -1 -770 -18 0 -9
13 -23 29 -30 18 -8 34 -25 40 -44 17 -48 15 -1525 -2 -1558 -7 -14 -25 -31
-40 -38 -16 -8 -27 -21 -27 -33 0 -19 14 -19 803 -19 l804 0 20 -22 c11 -13
23 -31 26 -40 4 -10 16 -18 27 -18 20 0 20 6 20 225 0 213 -1 225 -19 225 -11
0 -23 -12 -31 -30 -7 -17 -21 -35 -31 -40 -11 -6 -244 -10 -594 -10 l-575 0 2
238 3 237 357 3 c217 1 366 -2 382 -8 15 -5 34 -25 43 -45 10 -22 23 -35 33
-33 13 3 15 34 18 221 2 211 2 217 -18 217 -12 0 -26 -12 -35 -30 -9 -17 -27
-35 -41 -40 -14 -6 -180 -10 -385 -10 l-359 0 0 210 0 210 549 0 c326 0 560
-4 575 -10 14 -5 32 -23 41 -40 9 -18 23 -30 35 -30 20 0 20 6 18 222 -3 204
-4 223 -21 226 -12 3 -21 -6 -29 -28z"/>
<path d="M18735 5279 c-383 -35 -610 -239 -610 -549 1 -251 150 -417 425 -474
41 -8 183 -27 315 -41 353 -38 429 -58 466 -119 35 -58 17 -140 -44 -204 -127
-133 -439 -154 -737 -50 -150 53 -251 127 -266 195 -3 16 -7 34 -10 41 -11 38
-38 -5 -122 -195 -79 -181 -89 -210 -76 -220 12 -9 21 -8 42 4 26 15 32 13
154 -40 284 -126 556 -172 815 -136 407 55 628 253 626 559 -2 198 -95 344
-276 431 -107 51 -212 73 -497 104 -362 40 -410 52 -450 118 -58 95 17 213
165 260 61 19 91 22 230 21 131 -1 174 -5 240 -23 173 -47 355 -161 355 -223
0 -14 6 -28 14 -31 16 -6 58 66 170 290 51 102 54 113 38 122 -12 6 -23 5 -37
-5 -30 -22 -53 -18 -220 47 -87 34 -200 72 -251 85 -81 20 -292 46 -349 43
-11 -1 -60 -5 -110 -10z"/>
<path d="M21704 5279 c-380 -29 -683 -213 -819 -494 -69 -144 -80 -201 -79
-410 0 -167 2 -186 28 -270 71 -233 215 -400 441 -509 183 -90 357 -123 595
-113 164 7 314 35 478 89 142 47 422 180 422 201 0 7 -17 25 -37 38 l-38 24
-3 215 c-1 118 0 225 3 238 3 13 20 30 40 39 21 10 35 24 35 35 0 17 -21 18
-426 18 -253 0 -433 4 -443 10 -10 5 -24 23 -31 40 -8 18 -20 30 -31 30 -18 0
-19 -11 -19 -200 0 -189 1 -200 19 -200 11 0 23 12 31 31 7 17 24 35 37 40 13
5 125 9 249 9 l224 0 0 -120 0 -120 -42 -21 c-64 -33 -171 -67 -267 -86 -125
-24 -332 -21 -434 6 -332 88 -511 380 -441 718 24 116 67 196 154 284 137 139
301 197 530 186 255 -12 520 -125 520 -221 0 -24 27 -43 41 -29 4 4 50 97 102
205 84 173 93 199 79 207 -11 6 -25 4 -44 -7 -33 -19 -58 -14 -260 58 -201 70
-399 96 -614 79z"/>
<path d="M30040 5279 c-113 -10 -252 -48 -332 -91 -185 -99 -290 -286 -275
-493 17 -236 167 -389 433 -440 39 -8 179 -26 310 -40 340 -37 400 -52 454
-110 20 -22 25 -36 24 -81 -1 -166 -236 -276 -524 -244 -166 18 -338 74 -439
141 -66 44 -92 78 -101 129 -4 25 -11 35 -23 35 -14 0 -39 -49 -107 -204 -50
-113 -90 -208 -90 -212 0 -16 32 -17 58 -2 27 16 31 15 128 -29 135 -62 255
-104 377 -130 138 -30 420 -32 545 -5 186 41 298 93 388 179 104 100 154 217
154 364 0 225 -126 392 -354 469 -86 28 -177 44 -418 70 -353 39 -399 50 -447
111 -25 32 -28 101 -6 143 24 48 94 100 165 122 92 30 275 36 398 15 212 -37
432 -164 432 -249 0 -8 7 -17 15 -21 12 -4 39 43 116 196 103 206 111 236 54
210 -41 -19 -58 -15 -219 48 -198 77 -317 107 -473 120 -69 5 -131 9 -137 9
-6 -1 -54 -6 -106 -10z"/>
<path d="M13950 5230 c0 -11 7 -20 15 -20 9 0 27 -11 40 -25 l25 -24 0 -776
c0 -478 -4 -783 -10 -794 -5 -10 -23 -24 -40 -31 -18 -8 -30 -20 -30 -31 0
-18 18 -19 529 -19 549 0 679 7 816 41 223 57 418 232 498 447 77 209 85 477
20 702 -70 242 -239 425 -461 500 -136 45 -220 50 -829 50 -566 0 -573 0 -573
-20z m1165 -284 c94 -26 145 -55 206 -115 111 -111 155 -255 147 -486 -4 -113
-10 -155 -30 -216 -32 -97 -87 -180 -152 -229 -116 -87 -189 -100 -577 -100
l-299 0 0 586 0 586 323 -5 c261 -3 333 -7 382 -21z"/>
<path d="M19980 5237 c0 -8 17 -25 38 -38 l37 -24 3 -775 c1 -426 0 -785 -3
-798 -3 -13 -20 -30 -40 -39 -21 -10 -35 -24 -35 -35 0 -17 16 -18 270 -18
260 0 270 1 270 19 0 11 -9 22 -20 26 -11 3 -29 18 -40 32 -20 25 -20 38 -20
800 l0 774 25 24 c13 14 31 25 40 25 8 0 15 9 15 20 0 20 -7 20 -270 20 -218
0 -270 -3 -270 -13z"/>
<path d="M23070 5230 c0 -11 7 -20 15 -20 9 0 27 -11 40 -25 l25 -24 0 -774
c0 -762 0 -775 -20 -800 -11 -14 -29 -29 -40 -32 -11 -4 -20 -15 -20 -26 0
-18 10 -19 255 -19 240 0 255 1 255 18 0 11 -13 24 -32 33 -18 8 -38 25 -45
39 -10 19 -13 154 -13 563 0 296 4 537 8 535 5 -1 190 -192 412 -423 222 -231
450 -468 506 -526 117 -121 131 -150 91 -185 -15 -13 -27 -30 -27 -39 0 -13
33 -15 270 -15 260 0 270 1 270 19 0 11 -9 22 -20 26 -11 3 -29 18 -40 32 -20
25 -20 38 -20 800 l0 774 25 24 c13 14 31 25 40 25 8 0 15 9 15 20 0 19 -7 20
-255 20 -216 0 -255 -2 -255 -15 0 -8 16 -22 35 -31 26 -12 38 -26 45 -53 7
-24 10 -212 8 -550 l-3 -515 -420 440 c-604 633 -575 600 -575 629 0 16 11 32
30 47 63 46 52 48 -265 48 -288 0 -295 0 -295 -20z"/>
<path d="M27310 5237 c0 -7 17 -25 38 -38 l37 -24 3 -775 c1 -426 0 -785 -3
-798 -3 -13 -20 -30 -40 -39 -21 -10 -35 -24 -35 -35 0 -17 16 -18 270 -18
260 0 270 1 270 19 0 11 -9 22 -20 26 -11 3 -29 18 -40 32 -19 25 -20 40 -20
329 l0 304 233 0 234 0 191 -278 c105 -153 199 -296 209 -316 18 -38 18 -38
-6 -57 -13 -10 -29 -19 -37 -19 -8 0 -14 -9 -14 -20 0 -20 7 -20 315 -20 302
0 315 1 315 19 0 14 -10 21 -36 26 -57 10 -112 75 -333 390 l-202 290 52 12
c235 53 363 168 405 362 51 244 -48 482 -238 571 -142 66 -115 64 -865 68
-577 2 -683 1 -683 -11z m1295 -295 c95 -44 128 -96 128 -202 0 -73 -16 -120
-56 -158 -69 -67 -70 -67 -509 -70 l-398 -3 0 231 0 232 393 -4 c385 -3 393
-3 442 -26z"/>
</g>
</svg>
